<svg version="1.0" xmlns="http://www.w3.org/2000/svg"
 width="512.000000pt" height="512.000000pt" viewBox="0 0 512.000000 512.000000"
 preserveAspectRatio="xMidYMid meet">

<g transform="translate(0.000000,512.000000) scale(0.100000,-0.100000)"
fill="#1c1c1c" stroke="none">
<path d="M2525 4568 c-181 -302 -340 -572 -353 -600 -59 -130 -77 -306 -46
-456 19 -96 87 -238 151 -317 100 -123 253 -219 409 -256 174 -42 386 -12 536
74 262 150 417 453 379 738 -22 163 -44 207 -401 800 -183 305 -335 557 -339
561 -3 3 -154 -241 -336 -544z m535 -364 c107 -180 203 -344 212 -366 65 -147
33 -340 -78 -467 -128 -147 -349 -193 -525 -109 -203 97 -306 326 -240 536 12
39 92 183 221 396 112 185 206 336 209 336 3 0 94 -147 201 -326z"/>
<path d="M910 2928 c-245 -396 -462 -752 -482 -791 -183 -350 -147 -789 92
-1105 145 -193 344 -327 579 -390 83 -22 117 -25 256 -26 137 -1 173 3 249 23
314 82 553 274 692 556 141 288 148 611 18 894 -30 65 -920 1518 -948 1547 -8
9 -128 -178 -456 -708z m784 -386 c174 -282 327 -535 341 -562 67 -133 90
-354 52 -500 -59 -224 -236 -430 -443 -514 -194 -79 -421 -72 -610 19 -149 72
-278 201 -349 350 -92 192 -98 414 -18 608 16 36 177 307 358 601 245 396 333
531 341 523 6 -7 154 -243 328 -525z"/>
<path d="M3460 2573 c-700 -1132 -675 -1088 -723 -1266 -31 -118 -31 -374 0
-497 98 -387 396 -686 779 -782 73 -18 117 -22 244 -22 136 1 167 4 255 27
433 116 747 489 784 934 15 179 -16 365 -87 523 -23 52 -926 1526 -951 1552
-3 4 -139 -207 -301 -469z m636 -638 c180 -291 338 -556 351 -588 81 -200 74
-437 -20 -623 -126 -249 -357 -404 -627 -421 -212 -13 -411 63 -564 214 -109
108 -171 219 -208 372 -38 162 -12 376 65 517 63 115 662 1072 668 1066 4 -4
154 -245 335 -537z"/>
</g>
</svg>
