<svg version="1.0" xmlns="http://www.w3.org/2000/svg"
 width="512.000000pt" height="512.000000pt" viewBox="0 0 512.000000 512.000000"
 preserveAspectRatio="xMidYMid meet">

  <g transform="translate(0.000000,512.000000) scale(0.100000,-0.100000)"
    fill="#1c1c1c" stroke="none">
<path d="M2405 4554 c-156 -33 -339 -151 -429 -278 -120 -167 -181 -416 -127
-516 57 -106 193 -133 280 -54 46 41 56 65 70 168 14 99 42 157 106 221 60 60
119 91 198 103 70 11 156 -1 217 -31 58 -28 139 -109 167 -167 81 -165 20
-372 -136 -468 -95 -59 -24 -56 -1383 -62 -1255 -5 -1257 -5 -1285 -26 -115
-85 -107 -249 17 -311 l44 -23 1244 0 c1398 0 1325 -4 1487 75 305 148 467
474 399 803 -46 221 -191 406 -399 507 -148 72 -311 92 -470 59z"/>
<path d="M4268 3830 c-274 -50 -494 -243 -578 -510 -24 -73 -36 -199 -26 -254
8 -41 55 -100 97 -122 36 -18 122 -18 158 0 41 22 89 81 96 118 3 18 9 62 15
97 18 123 87 219 198 273 61 30 74 33 162 33 82 0 103 -4 152 -27 73 -34 142
-103 176 -176 23 -49 27 -70 27 -152 0 -88 -3 -101 -33 -162 -53 -108 -148
-179 -268 -198 -37 -6 -870 -10 -2173 -10 l-2115 0 -43 -21 c-126 -61 -126
-257 0 -318 l44 -21 2189 2 2189 3 65 23 c250 87 415 256 491 502 34 107 34
292 1 400 -74 239 -254 422 -490 497 -85 27 -251 39 -334 23z"/>
<path d="M100 1988 c-124 -63 -132 -227 -17 -312 28 -21 30 -21 1285 -26 1359
-6 1288 -3 1383 -62 156 -96 217 -303 136 -468 -28 -58 -109 -139 -167 -167
-94 -46 -226 -46 -320 0 -58 28 -139 109 -167 168 -13 25 -28 81 -34 125 -14
103 -24 127 -70 168 -87 79 -223 52 -280 -54 -54 -100 7 -349 127 -516 123
-174 363 -294 584 -294 221 0 461 120 584 294 194 270 194 602 0 872 -61 86
-159 166 -269 219 -162 79 -89 75 -1487 75 l-1244 0 -44 -22z"/>
  </g>
</svg>
